<?xml version="1.0" encoding="UTF-8"?>
<svg width="68px" height="35px" viewBox="0 0 68 35" version="1.1" xmlns="http://www.w3.org/2000/svg"
>
  <!-- Generator: Sketch 50.2 (55047) - http://www.bohemiancoding.com/sketch -->
  <title>noun_1418126_cc copy 13</title>
  <desc>Created with Sketch.</desc>
  <defs></defs>
  <g id="Page-1" stroke="none" stroke-width="1" fill="none" fill-rule="evenodd">
    <g id="noun_1418126_cc-copy-13"
       transform="translate(34.000000, 17.500000) rotate(-270.000000) translate(-34.000000, -17.500000) translate(16.500000, -16.500000)"
       fill="#000000" fill-rule="nonzero">
      <path
        d="M34.125,25.7428571 C33.25,24.5771429 30.625,24.2857143 30.625,24.2857143 C30.7222222,20.8857143 31.1111111,17.5828571 31.3055556,16.32 C33.1527778,9.22857143 29.6527778,4.85714286 29.6527778,4.85714286 C24.9861111,0.194285714 20.8055556,0 17.5,0 C14.1944444,0 9.91666667,0.291428571 5.34722222,4.85714286 C5.34722222,4.85714286 1.84722222,9.22857143 3.69444444,16.32 C3.88888889,17.4857143 4.18055556,20.7885714 4.375,24.2857143 C4.375,24.2857143 1.75,24.5771429 0.875,25.7428571 C2.19824159e-14,26.9085714 2.19824159e-14,27.5885714 0.875,27.5885714 C1.75,27.5885714 3.69444444,25.3542857 4.375,25.3542857 L4.375,24.2857143 C4.375,25.2571429 4.47222222,26.2285714 4.47222222,27.2 C4.47222222,31.4742857 4.47222222,59.9371429 4.47222222,59.9371429 C4.47222222,59.9371429 4.18055556,65.8628571 9.33333333,67.5142857 C10.5,67.5142857 13.8055556,67.9028571 17.5,68 C21.1944444,67.9028571 24.5972222,67.5142857 25.6666667,67.5142857 C30.8194444,65.8628571 30.5277778,59.9371429 30.5277778,59.9371429 C30.5277778,59.9371429 30.5277778,31.4742857 30.5277778,27.2 C30.5277778,26.2285714 30.5277778,25.2571429 30.625,24.2857143 L30.625,25.4514286 C31.3055556,25.4514286 33.25,27.6857143 34.125,27.6857143 C35,27.6857143 35,26.9085714 34.125,25.7428571 Z M7.48611111,54.8857143 C7.19444444,58.0914286 5.25,58.8685714 5.25,58.8685714 L5.25,26.6171429 C6.02777778,27.7828571 7.48611111,33.2228571 7.48611111,33.2228571 C7.48611111,33.2228571 7.68055556,51.68 7.48611111,54.8857143 Z M27.0277778,63.3371429 C27.0277778,63.3371429 22.9444444,65.5714286 17.5,65.4742857 C12.0555556,65.5714286 7.97222222,63.3371429 7.97222222,63.3371429 L7.97222222,60.6171429 C12.7361111,62.7542857 17.5,62.7542857 17.5,62.7542857 C17.5,62.7542857 22.2638889,62.7542857 27.0277778,60.6171429 L27.0277778,63.3371429 Z M7.97222222,30.2114286 L6.31944444,20.3028571 C6.31944444,20.3028571 10.6944444,17.1942857 17.5,17.1942857 C24.3055556,17.1942857 28.6805556,20.3028571 28.6805556,20.3028571 L27.0277778,30.2114286 C23.7222222,28.3657143 11.2777778,28.3657143 7.97222222,30.2114286 Z M29.8472222,58.8685714 C29.8472222,58.8685714 27.8055556,58.0914286 27.6111111,54.8857143 C27.3194444,51.68 27.6111111,33.1257143 27.6111111,33.1257143 C27.6111111,33.1257143 29.0694444,27.6857143 29.8472222,26.52 L29.8472222,58.8685714 Z"
        id="Shape"></path>
    </g>
  </g>
</svg>
