<?xml version="1.0" encoding="UTF-8" standalone="no"?>
<svg
  xmlns:dc="http://purl.org/dc/elements/1.1/"
  xmlns:cc="http://creativecommons.org/ns#"
  xmlns:rdf="http://www.w3.org/1999/02/22-rdf-syntax-ns#"
  xmlns:sodipodi="http://sodipodi.sourceforge.net/DTD/sodipodi-0.dtd"
  xmlns:inkscape="http://www.inkscape.org/namespaces/inkscape"
  xmlns="http://www.w3.org/2000/svg"
  width="68px"
  height="35px"
  viewBox="0 0 68 35"
  version="1.1"
  id="svg2"
  inkscape:version="0.91 r13725"
  sodipodi:docname="Auto_rotated.svg">
  <metadata
    id="metadata15">
    <rdf:RDF>
      <cc:Work
        rdf:about="">
        <dc:format>image/svg+xml</dc:format>
        <dc:type
          rdf:resource="http://purl.org/dc/dcmitype/StillImage"/>
        <dc:title>noun_1418126_cc copy 13</dc:title>
      </cc:Work>
    </rdf:RDF>
  </metadata>
  <sodipodi:namedview
    pagecolor="#ffffff"
    bordercolor="#666666"
    borderopacity="1"
    objecttolerance="10"
    gridtolerance="10"
    guidetolerance="10"
    inkscape:pageopacity="0"
    inkscape:pageshadow="2"
    inkscape:window-width="1920"
    inkscape:window-height="1026"
    id="namedview13"
    showgrid="false"
    inkscape:zoom="3.9117647"
    inkscape:cx="34.511278"
    inkscape:cy="17.5"
    inkscape:window-x="0"
    inkscape:window-y="0"
    inkscape:window-maximized="1"
    inkscape:current-layer="svg2"/>
  <!-- Generator: Sketch 50.2 (55047) - http://www.bohemiancoding.com/sketch -->
  <title
    id="title4">noun_1418126_cc copy 13
  </title>
  <desc
    id="desc6">Created with Sketch.
  </desc>
  <defs
    id="defs8"/>
  <g
    id="Page-1"
    transform="matrix(-1,0,0,1,68,0)"
    style="fill:none;fill-rule:evenodd;stroke:none;stroke-width:1">
    <g
      id="noun_1418126_cc-copy-13"
      transform="matrix(0,1,-1,0,68,0)"
      style="fill:#000000;fill-rule:nonzero">
      <path
        d="m 34.125,25.742857 c -0.875,-1.165714 -3.5,-1.457143 -3.5,-1.457143 0.09722,-3.4 0.486111,-6.702857 0.680556,-7.965714 C 33.152778,9.2285714 29.652778,4.8571429 29.652778,4.8571429 24.986111,0.19428571 20.805556,0 17.5,0 14.194444,0 9.9166667,0.29142857 5.3472222,4.8571429 c 0,0 -3.5,4.3714285 -1.6527778,11.4628571 0.1944445,1.165714 0.4861112,4.468571 0.6805556,7.965714 0,0 -2.625,0.291429 -3.5,1.457143 -0.875,1.165714 -0.875,1.845714 0,1.845714 0.875,0 2.8194444,-2.234285 3.5,-2.234285 l 0,-1.068572 c 0,0.971429 0.097222,1.942857 0.097222,2.914286 0,4.274286 0,32.737143 0,32.737143 0,0 -0.2916666,5.925714 4.8611111,7.577143 C 10.5,67.514286 13.805556,67.902857 17.5,68 c 3.694444,-0.09714 7.097222,-0.485714 8.166667,-0.485714 5.152777,-1.651429 4.861111,-7.577143 4.861111,-7.577143 0,0 0,-28.462857 0,-32.737143 0,-0.971429 0,-1.942857 0.09722,-2.914286 l 0,1.165715 c 0.680556,0 2.625,2.234285 3.5,2.234285 0.875,0 0.875,-0.777143 0,-1.942857 z M 7.4861111,54.885714 C 7.1944444,58.091429 5.25,58.868571 5.25,58.868571 l 0,-32.251428 c 0.7777778,1.165714 2.2361111,6.605714 2.2361111,6.605714 0,0 0.1944445,18.457143 0,21.662857 z m 19.5416669,8.451429 c 0,0 -4.083334,2.234286 -9.527778,2.137143 -5.444444,0.09714 -9.5277778,-2.137143 -9.5277778,-2.137143 l 0,-2.72 C 12.736111,62.754286 17.5,62.754286 17.5,62.754286 c 0,0 4.763889,0 9.527778,-2.137143 l 0,2.72 z M 7.9722222,30.211429 6.3194444,20.302857 c 0,0 4.3749996,-3.108571 11.1805556,-3.108571 6.805556,0 11.180556,3.108571 11.180556,3.108571 l -1.652778,9.908572 c -3.305556,-1.845715 -15.75,-1.845715 -19.0555558,0 z M 29.847222,58.868571 c 0,0 -2.041666,-0.777142 -2.236111,-3.982857 -0.291667,-3.205714 0,-21.76 0,-21.76 0,0 1.458333,-5.44 2.236111,-6.605714 l 0,32.348571 z"
        id="Shape"
        inkscape:connector-curvature="0"/>
    </g>
  </g>
</svg>
